<svg width="1090" height="169" viewBox="0 0 1090 169" fill="none" xmlns="http://www.w3.org/2000/svg">
<rect y="2" width="200" height="25" rx="12.5" fill="#CE422B"/>
<rect x="50" y="37" width="150" height="25" rx="12.5" fill="#00B4E0"/>
<rect x="10" y="72" width="165" height="25" rx="12.5" fill="#F7A41D"/>
<rect y="107" width="140" height="25" rx="12.5" fill="#7F52FF"/>
<rect y="142" width="200" height="25" rx="12.5" fill="#019833"/>
<path d="M293 131C288.904 131 285.32 130.189 282.248 128.568C279.176 126.947 276.787 124.643 275.08 121.656C273.373 118.669 272.52 115.171 272.52 111.16V48.056H248.84V37.56H284.04V111.16C284.04 114.061 284.851 116.365 286.472 118.072C288.093 119.693 290.269 120.504 293 120.504H315.4V131H293ZM357.974 132.024C353.195 132.024 349.014 131.299 345.43 129.848C341.931 128.312 339.115 126.179 336.982 123.448C334.934 120.717 333.697 117.475 333.27 113.72H344.79C345.302 116.195 346.667 118.157 348.886 119.608C351.19 121.059 354.219 121.784 357.974 121.784H363.35C367.873 121.784 371.243 120.888 373.462 119.096C375.681 117.219 376.79 114.744 376.79 111.672C376.79 108.685 375.766 106.339 373.718 104.632C371.755 102.84 368.811 101.645 364.886 101.048L355.414 99.512C348.502 98.3173 343.339 96.184 339.926 93.112C336.598 89.9547 334.934 85.3893 334.934 79.416C334.934 73.1013 336.939 68.2373 340.95 64.824C344.961 61.3253 350.977 59.576 358.998 59.576H363.862C370.603 59.576 376.022 61.1547 380.118 64.312C384.214 67.4693 386.689 71.736 387.542 77.112H376.022C375.51 74.8933 374.23 73.144 372.182 71.864C370.134 70.4987 367.361 69.816 363.862 69.816H358.998C354.646 69.816 351.446 70.6267 349.398 72.248C347.435 73.8693 346.454 76.3013 346.454 79.544C346.454 82.4453 347.307 84.5787 349.014 85.944C350.721 87.3093 353.409 88.2907 357.078 88.888L366.55 90.424C374.145 91.6187 379.649 93.8373 383.062 97.08C386.561 100.323 388.31 105.016 388.31 111.16C388.31 117.645 386.219 122.765 382.038 126.52C377.942 130.189 371.713 132.024 363.35 132.024H357.974Z" fill="#CE422B"/>
<path d="M416.42 93.88V83.64H457.38V93.88H416.42Z" fill="#F4F4F4"/>
<path d="M513.65 132.28C508.103 132.28 503.239 131.171 499.058 128.952C494.962 126.733 491.762 123.619 489.458 119.608C487.239 115.512 486.13 110.776 486.13 105.4V86.2C486.13 80.7387 487.239 76.0027 489.458 71.992C491.762 67.9813 494.962 64.8667 499.058 62.648C503.239 60.4293 508.103 59.32 513.65 59.32C519.197 59.32 524.018 60.4293 528.114 62.648C532.295 64.8667 535.495 67.9813 537.714 71.992C540.018 76.0027 541.17 80.7387 541.17 86.2V98.616H497.394V105.4C497.394 110.947 498.802 115.213 501.618 118.2C504.434 121.101 508.445 122.552 513.65 122.552C518.087 122.552 521.671 121.784 524.402 120.248C527.133 118.627 528.797 116.237 529.394 113.08H540.914C540.146 118.968 537.245 123.661 532.21 127.16C527.261 130.573 521.074 132.28 513.65 132.28ZM529.906 90.936V86.2C529.906 80.6533 528.498 76.3867 525.682 73.4C522.951 70.4133 518.941 68.92 513.65 68.92C508.445 68.92 504.434 70.4133 501.618 73.4C498.802 76.3867 497.394 80.6533 497.394 86.2V89.912H530.802L529.906 90.936ZM563.776 131V60.6H575.296V74.04H577.728L575.296 76.728C575.296 71.1813 576.96 66.9147 580.288 63.928C583.616 60.856 588.224 59.32 594.112 59.32C601.195 59.32 606.827 61.496 611.008 65.848C615.189 70.2 617.28 76.1307 617.28 83.64V131H605.76V84.92C605.76 79.8853 604.395 76.0453 601.664 73.4C599.019 70.6693 595.392 69.304 590.784 69.304C586.005 69.304 582.208 70.7547 579.392 73.656C576.661 76.5573 575.296 80.7387 575.296 86.2V131H563.776Z" fill="#00B4E0"/>
<path d="M640.526 131V37.56H652.046V60.6V74.04H654.478L652.046 76.728C652.046 71.1813 653.71 66.9147 657.038 63.928C660.366 60.856 664.974 59.32 670.862 59.32C677.945 59.32 683.577 61.496 687.758 65.848C691.939 70.2 694.03 76.1307 694.03 83.64V131H682.51V84.92C682.51 79.8853 681.145 76.0027 678.414 73.272C675.769 70.456 672.142 69.048 667.534 69.048C662.755 69.048 658.958 70.5413 656.142 73.528C653.411 76.5147 652.046 80.7387 652.046 86.2V131H640.526ZM737.756 132.28C730.332 132.28 724.487 130.403 720.22 126.648C715.953 122.808 713.82 117.645 713.82 111.16C713.82 104.589 715.953 99.4267 720.22 95.672C724.487 91.9173 730.247 90.04 737.5 90.04H759.26V83C759.26 78.648 757.937 75.32 755.292 73.016C752.732 70.6267 749.063 69.432 744.284 69.432C740.103 69.432 736.604 70.328 733.788 72.12C730.972 73.8267 729.351 76.1733 728.924 79.16H717.404C718.172 73.1013 721.031 68.28 725.98 64.696C730.929 61.112 737.116 59.32 744.54 59.32C752.647 59.32 759.047 61.4107 763.74 65.592C768.433 69.7733 770.78 75.448 770.78 82.616V131H759.516V117.56H757.596L759.516 115.64C759.516 120.76 757.511 124.813 753.5 127.8C749.575 130.787 744.327 132.28 737.756 132.28ZM740.572 123.192C746.033 123.192 750.513 121.827 754.012 119.096C757.511 116.365 759.26 112.867 759.26 108.6V98.616H737.756C733.916 98.616 730.887 99.6827 728.668 101.816C726.449 103.949 725.34 106.851 725.34 110.52C725.34 114.445 726.663 117.56 729.308 119.864C732.039 122.083 735.793 123.192 740.572 123.192Z" fill="#F7A41D"/>
<path d="M794.026 131V60.6H805.546V74.04H807.978L805.546 76.728C805.546 71.1813 807.21 66.9147 810.538 63.928C813.866 60.856 818.474 59.32 824.362 59.32C831.445 59.32 837.077 61.496 841.258 65.848C845.439 70.2 847.53 76.1307 847.53 83.64V131H836.01V84.92C836.01 79.8853 834.645 76.0453 831.914 73.4C829.269 70.6693 825.642 69.304 821.034 69.304C816.255 69.304 812.458 70.7547 809.642 73.656C806.911 76.5573 805.546 80.7387 805.546 86.2V131H794.026ZM897.912 132.28C892.28 132.28 887.331 131.213 883.064 129.08C878.883 126.947 875.64 123.875 873.336 119.864C871.032 115.768 869.88 110.947 869.88 105.4V86.2C869.88 80.568 871.032 75.7467 873.336 71.736C875.64 67.7253 878.883 64.6533 883.064 62.52C887.331 60.3867 892.28 59.32 897.912 59.32C906.019 59.32 912.547 61.496 917.496 65.848C922.445 70.2 925.048 76.1307 925.304 83.64H913.784C913.528 79.1173 911.992 75.6613 909.176 73.272C906.445 70.7973 902.691 69.56 897.912 69.56C892.877 69.56 888.867 71.0107 885.88 73.912C882.893 76.728 881.4 80.7813 881.4 86.072V105.4C881.4 110.691 882.893 114.787 885.88 117.688C888.867 120.589 892.877 122.04 897.912 122.04C902.691 122.04 906.445 120.803 909.176 118.328C911.992 115.853 913.528 112.397 913.784 107.96H925.304C925.048 115.469 922.445 121.4 917.496 125.752C912.547 130.104 906.019 132.28 897.912 132.28Z" fill="#7F52FF"/>
<path d="M974.15 132.28C968.603 132.28 963.739 131.171 959.558 128.952C955.462 126.733 952.262 123.619 949.958 119.608C947.739 115.512 946.63 110.776 946.63 105.4V86.2C946.63 80.7387 947.739 76.0027 949.958 71.992C952.262 67.9813 955.462 64.8667 959.558 62.648C963.739 60.4293 968.603 59.32 974.15 59.32C979.697 59.32 984.518 60.4293 988.614 62.648C992.795 64.8667 995.995 67.9813 998.214 71.992C1000.52 76.0027 1001.67 80.7387 1001.67 86.2V98.616H957.894V105.4C957.894 110.947 959.302 115.213 962.118 118.2C964.934 121.101 968.945 122.552 974.15 122.552C978.587 122.552 982.171 121.784 984.902 120.248C987.633 118.627 989.297 116.237 989.894 113.08H1001.41C1000.65 118.968 997.745 123.661 992.71 127.16C987.761 130.573 981.574 132.28 974.15 132.28ZM990.406 90.936V86.2C990.406 80.6533 988.998 76.3867 986.182 73.4C983.451 70.4133 979.441 68.92 974.15 68.92C968.945 68.92 964.934 70.4133 962.118 73.4C959.302 76.3867 957.894 80.6533 957.894 86.2V89.912H991.302L990.406 90.936ZM1046.8 132.28C1039.81 132.28 1034.13 129.933 1029.78 125.24C1025.51 120.547 1023.38 114.189 1023.38 106.168V85.56C1023.38 77.4533 1025.51 71.0533 1029.78 66.36C1034.05 61.6667 1039.72 59.32 1046.8 59.32C1052.61 59.32 1057.26 60.8987 1060.76 64.056C1064.25 67.2133 1066 71.4373 1066 76.728L1063.7 74.04H1066.26L1066 58.04V37.56H1077.52V131H1066V117.56H1063.7L1066 114.872C1066 120.248 1064.25 124.515 1060.76 127.672C1057.26 130.744 1052.61 132.28 1046.8 132.28ZM1050.64 122.296C1055.42 122.296 1059.18 120.803 1061.91 117.816C1064.64 114.829 1066 110.691 1066 105.4V86.2C1066 80.9093 1064.64 76.7707 1061.91 73.784C1059.18 70.7973 1055.42 69.304 1050.64 69.304C1045.78 69.304 1041.94 70.7547 1039.12 73.656C1036.31 76.5573 1034.9 80.7387 1034.9 86.2V105.4C1034.9 110.861 1036.31 115.043 1039.12 117.944C1041.94 120.845 1045.78 122.296 1050.64 122.296Z" fill="#019833"/>
</svg>
